:FULLY-SPECIFIED
:FORCE-ALL-JOINTS-BE-3DOF
:DEGREES
2039
root -3.24799 15.16 22.2835 898.551 -9.35223 173.169
lfemur -17.5678 9.87566 -23.101
ltibia 56.0845 0 0
lfoot -24.8955 17.6032 0
ltoes -42.4184 0 0
rfemur -58.1036 -15.2342 18.5805
rtibia 65.0499 0 0
rfoot -1.2799 3.92623 0
rtoes -10.2831 0 0
lowerback 15.4171 -0.649533 -8.6158
upperback -0.480561 -2.34602 1.85044
thorax -8.79791 -0.721373 7.46476
lowerneck -2.86946 -3.61236 -6.10438
upperneck 6.87855 -4.74464 1.26379
head 2.9279 -2.53055 1.26612
lclavicle 2.5737e-14 6.26645e-15 0
lhumerus -3.68699 -34.465 85.444
lradius 66.5911 0 0
lwrist -3.70404 0 0
lhand -26.8746 37.6754 0
lfingers 7.12502 0 0
lthumb -0.291424 -652.494 0
rclavicle 2.5737e-14 6.26645e-15 0
rhumerus 0.756576 16.247 -68.7611
rradius 117.701 0 0
rwrist -47.674 0 0
rhand 39.6539 -387.627 0
rfingers 7.12502 0 0
rthumb 61.7879 323.271 0
2040
root -3.23917 15.1206 22.1077 898.583 -10.1857 173.135
lfemur -17.0117 9.15982 -22.9429
ltibia 56.1393 0 0
lfoot -25.1458 18.1683 0
ltoes -42.6587 0 0
rfemur -57.8384 -15.3566 18.0339
rtibia 64.5392 0 0
rfoot -0.83119 3.55329 0
rtoes -9.15055 0 0
lowerback 15.3168 -0.476657 -8.7532
upperback -0.43999 -2.13827 1.74295
thorax -8.73666 -0.624114 7.37875
lowerneck -2.7742 -4.03669 -6.44437
upperneck 6.86008 -5.33756 1.6519
head 2.97759 -2.82013 1.39761
lclavicle 2.33459e-14 7.76207e-15 0
lhumerus -6.97908 -33.2461 86.3516
lradius 68.6736 0 0
lwrist -0.498416 0 0
lhand -28.5921 38.8903 0
lfingers 7.12502 0 0
lthumb -1.94275 -651.424 0
rclavicle 2.33459e-14 7.76207e-15 0
rhumerus 2.82753 15.4333 -67.8346
rradius 112.915 0 0
rwrist -44.5756 0 0
rhand 36.7848 -388.25 0
rfingers 7.12502 0 0
rthumb 59.1252 321.614 0
2041
root -3.23034 15.0812 21.9318 898.615 -11.0191 173.102
lfemur -16.4555 8.44398 -22.7848
ltibia 56.1941 0 0
lfoot -25.3961 18.7335 0
ltoes -42.899 0 0
rfemur -57.5733 -15.4791 17.4872
rtibia 64.0285 0 0
rfoot -0.382486 3.18036 0
rtoes -8.01797 0 0
lowerback 15.2164 -0.30378 -8.89061
upperback -0.399419 -1.93052 1.63545
thorax -8.67541 -0.526854 7.29275
lowerneck -2.67893 -4.46103 -6.78436
upperneck 6.8416 -5.93047 2.04001
head 3.02727 -3.1097 1.52909
lclavicle 2.09549e-14 9.25768e-15 0
lhumerus -10.2712 -32.0271 87.2591
lradius 70.7561 0 0
lwrist 2.70721 0 0
lhand -30.3097 40.1052 0
lfingers 7.12502 0 0
lthumb -3.59407 -650.354 0
rclavicle 2.09549e-14 9.25768e-15 0
rhumerus 4.89849 14.6197 -66.908
rradius 108.129 0 0
rwrist -41.4771 0 0
rhand 33.9157 -388.872 0
rfingers 7.12502 0 0
rthumb 56.4624 319.956 0
2042
root -3.22152 15.0418 21.7559 898.647 -11.8525 173.068
lfemur -15.8994 7.72814 -22.6267
ltibia 56.2489 0 0
lfoot -25.6463 19.2986 0
ltoes -43.1392 0 0
rfemur -57.3081 -15.6015 16.9406
rtibia 63.5177 0 0
rfoot 0.066219 2.80743 0
rtoes -6.8854 0 0
lowerback 15.1161 -0.130903 -9.02801
upperback -0.358847 -1.72276 1.52796
thorax -8.61416 -0.429594 7.20675
lowerneck -2.58366 -4.88537 -7.12435
upperneck 6.82313 -6.52338 2.42812
head 3.07696 -3.39928 1.66058
lclavicle 1.85639e-14 1.07533e-14 0
lhumerus -13.5632 -30.8081 88.1667
lradius 72.8386 0 0
lwrist 5.91283 0 0
lhand -32.0272 41.3201 0
lfingers 7.12502 0 0
lthumb -5.2454 -649.284 0
rclavicle 1.85639e-14 1.07533e-14 0
rhumerus 6.96944 13.8061 -65.9815
rradius 103.343 0 0
rwrist -38.3787 0 0
rhand 31.0466 -389.494 0
rfingers 7.12502 0 0
rthumb 53.7996 318.299 0
